<?xml version="1.0" encoding="UTF-8" standalone="no"?>
<!-- Created with Inkscape (http://www.inkscape.org/) -->

<svg
   width="64"
   height="64"
   viewBox="0 0 16.933333 16.933333"
   version="1.1"
   id="svg1"
   xml:space="preserve"
   inkscape:version="1.4.3 (0d15f75042, 2025-12-25)"
   sodipodi:docname="Logo App.svg"
   xmlns:inkscape="http://www.inkscape.org/namespaces/inkscape"
   xmlns:sodipodi="http://sodipodi.sourceforge.net/DTD/sodipodi-0.dtd"
   xmlns="http://www.w3.org/2000/svg"
   xmlns:svg="http://www.w3.org/2000/svg"><sodipodi:namedview
     id="namedview1"
     pagecolor="#ffffff"
     bordercolor="#000000"
     borderopacity="0.25"
     inkscape:showpageshadow="2"
     inkscape:pageopacity="0.0"
     inkscape:pagecheckerboard="true"
     inkscape:deskcolor="#d1d1d1"
     inkscape:document-units="px"
     showborder="true"
     inkscape:zoom="8.4763136"
     inkscape:cx="34.68489"
     inkscape:cy="37.457321"
     inkscape:window-width="1920"
     inkscape:window-height="1050"
     inkscape:window-x="0"
     inkscape:window-y="0"
     inkscape:window-maximized="1"
     inkscape:current-layer="layer1"><sodipodi:guide
       position="0,296.99999"
       orientation="0,793.70079"
       id="guide1"
       inkscape:locked="false" /><sodipodi:guide
       position="210,296.99999"
       orientation="1122.5197,0"
       id="guide2"
       inkscape:locked="false" /><sodipodi:guide
       position="210,-8.392334e-06"
       orientation="0,-793.70079"
       id="guide3"
       inkscape:locked="false" /><sodipodi:guide
       position="0,-8.392334e-06"
       orientation="-1122.5197,0"
       id="guide4"
       inkscape:locked="false" /></sodipodi:namedview><defs
     id="defs1" /><g
     inkscape:groupmode="layer"
     id="layer1"
     inkscape:label="Layer 1"><rect
       style="fill:#356678;fill-opacity:1;stroke-width:0.264583"
       id="rect4"
       width="16.933332"
       height="16.933332"
       x="2.7755576e-17"
       y="0"
       inkscape:label="rect4"
       ry="2.2513378" /><g
       style="shape-rendering:crispEdges"
       id="g4"
       transform="matrix(0.26458333,0,0,0.26458333,0,-1.0583333)"><rect
         x="30"
         y="8"
         width="4"
         height="10"
         fill="#ffffff"
         id="rect1" /><rect
         x="28"
         y="16"
         width="2"
         height="16"
         fill="#ffffff"
         id="rect2" /><rect
         x="34"
         y="16"
         width="2"
         height="16"
         fill="#ffffff"
         id="rect3" /><rect
         x="30"
         y="18"
         width="4"
         height="2"
         fill="#ac6cdc"
         id="rect4-5" /><rect
         x="30"
         y="20"
         width="4"
         height="2"
         fill="#6bdc24"
         id="rect5" /><rect
         x="30"
         y="22"
         width="4"
         height="2"
         fill="#dcd324"
         id="rect6" /><rect
         x="30"
         y="24"
         width="4"
         height="2"
         fill="#ac3232"
         id="rect7" /><rect
         x="30"
         y="26"
         width="4"
         height="2"
         fill="#5b6ee1"
         id="rect8" /><rect
         x="26"
         y="28"
         width="2"
         height="14"
         fill="#ffffff"
         id="rect9" /><rect
         x="30"
         y="28"
         width="4"
         height="2"
         fill="#ac6cdc"
         id="rect10" /><rect
         x="36"
         y="28"
         width="2"
         height="14"
         fill="#ffffff"
         id="rect11" /><rect
         x="30"
         y="30"
         width="4"
         height="6"
         fill="#595652"
         id="rect12" /><rect
         x="28"
         y="32"
         width="2"
         height="4"
         fill="#595652"
         id="rect13" /><rect
         x="34"
         y="32"
         width="2"
         height="4"
         fill="#595652"
         id="rect14" /><rect
         x="28"
         y="36"
         width="8"
         height="2"
         fill="#6bdc24"
         id="rect15" /><rect
         x="28"
         y="38"
         width="8"
         height="2"
         fill="#dcd324"
         id="rect16" /><rect
         x="10"
         y="40"
         width="4"
         height="4"
         fill="#ffffff"
         id="rect17" /><rect
         x="20"
         y="40"
         width="6"
         height="2"
         fill="#ffffff"
         id="rect18" /><rect
         x="28"
         y="40"
         width="8"
         height="2"
         fill="#ac3232"
         id="rect19" /><rect
         x="38"
         y="40"
         width="6"
         height="2"
         fill="#ffffff"
         id="rect20" /><rect
         x="50"
         y="40"
         width="4"
         height="4"
         fill="#ffffff"
         id="rect21" /><rect
         x="8"
         y="42"
         width="2"
         height="6"
         fill="#ffffff"
         id="rect22" /><rect
         x="14"
         y="42"
         width="8"
         height="2"
         fill="#ffffff"
         id="rect23" /><rect
         x="22"
         y="42"
         width="20"
         height="2"
         fill="#5b6ee1"
         id="rect24" /><rect
         x="42"
         y="42"
         width="8"
         height="2"
         fill="#ffffff"
         id="rect25" /><rect
         x="54"
         y="42"
         width="2"
         height="6"
         fill="#ffffff"
         id="rect26" /><rect
         x="4"
         y="44"
         width="2"
         height="2"
         fill="#d2d2d2"
         id="rect27" /><rect
         x="6"
         y="44"
         width="2"
         height="2"
         fill="#ffffff"
         id="rect28" /><rect
         x="10"
         y="44"
         width="2"
         height="4"
         fill="#ffffff"
         id="rect29" /><rect
         x="12"
         y="44"
         width="12"
         height="2"
         fill="#5b6ee1"
         id="rect30" /><rect
         x="24"
         y="44"
         width="16"
         height="2"
         fill="#ac6cdc"
         id="rect31" /><rect
         x="40"
         y="44"
         width="12"
         height="2"
         fill="#5b6ee1"
         id="rect32" /><rect
         x="52"
         y="44"
         width="2"
         height="4"
         fill="#ffffff"
         id="rect33" /><rect
         x="56"
         y="44"
         width="2"
         height="2"
         fill="#ffffff"
         id="rect34" /><rect
         x="58"
         y="44"
         width="2"
         height="2"
         fill="#d2d2d2"
         id="rect35" /><rect
         x="6"
         y="46"
         width="2"
         height="2"
         fill="#d2d2d2"
         id="rect36" /><rect
         x="12"
         y="46"
         width="6"
         height="2"
         fill="#4555b2"
         id="rect37" /><rect
         x="18"
         y="46"
         width="6"
         height="2"
         fill="#ac6cdc"
         id="rect38" /><rect
         x="24"
         y="46"
         width="16"
         height="2"
         fill="#6bdc24"
         id="rect39" /><rect
         x="40"
         y="46"
         width="6"
         height="2"
         fill="#ac6cdc"
         id="rect40" /><rect
         x="46"
         y="46"
         width="6"
         height="2"
         fill="#4555b2"
         id="rect41" /><rect
         x="56"
         y="46"
         width="2"
         height="2"
         fill="#d2d2d2"
         id="rect42" /><rect
         x="8"
         y="48"
         width="4"
         height="2"
         fill="#d2d2d2"
         id="rect43" /><rect
         x="12"
         y="48"
         width="6"
         height="2"
         fill="#ffffff"
         id="rect44" /><rect
         x="18"
         y="48"
         width="6"
         height="2"
         fill="#6bdc24"
         id="rect45" /><rect
         x="24"
         y="48"
         width="16"
         height="2"
         fill="#dcd324"
         id="rect46" /><rect
         x="40"
         y="48"
         width="6"
         height="2"
         fill="#6bdc24"
         id="rect47" /><rect
         x="46"
         y="48"
         width="6"
         height="2"
         fill="#ffffff"
         id="rect48" /><rect
         x="52"
         y="48"
         width="4"
         height="2"
         fill="#d2d2d2"
         id="rect49" /><rect
         x="12"
         y="50"
         width="4"
         height="2"
         fill="#d2d2d2"
         id="rect50" /><rect
         x="16"
         y="50"
         width="2"
         height="10"
         fill="#ffffff"
         id="rect51" /><rect
         x="18"
         y="50"
         width="2"
         height="2"
         fill="#3d8d0a"
         id="rect52" /><rect
         x="20"
         y="50"
         width="4"
         height="2"
         fill="#dcd324"
         id="rect53" /><rect
         x="24"
         y="50"
         width="16"
         height="2"
         fill="#ac3232"
         id="rect54" /><rect
         x="40"
         y="50"
         width="4"
         height="2"
         fill="#dcd324"
         id="rect55" /><rect
         x="44"
         y="50"
         width="2"
         height="2"
         fill="#3d8d0a"
         id="rect56" /><rect
         x="46"
         y="50"
         width="2"
         height="10"
         fill="#ffffff"
         id="rect57" /><rect
         x="48"
         y="50"
         width="4"
         height="2"
         fill="#d2d2d2"
         id="rect58" /><rect
         x="18"
         y="52"
         width="2"
         height="6"
         fill="#ffffff"
         id="rect59" /><rect
         x="20"
         y="52"
         width="4"
         height="2"
         fill="#ac3232"
         id="rect60" /><rect
         x="24"
         y="52"
         width="16"
         height="2"
         fill="#8d1d1d"
         id="rect61" /><rect
         x="40"
         y="52"
         width="4"
         height="2"
         fill="#ac3232"
         id="rect62" /><rect
         x="44"
         y="52"
         width="2"
         height="6"
         fill="#ffffff"
         id="rect63" /><rect
         x="20"
         y="54"
         width="4"
         height="2"
         fill="#8d1d1d"
         id="rect64" /><rect
         x="24"
         y="54"
         width="16"
         height="2"
         fill="#ffffff"
         id="rect65" /><rect
         x="40"
         y="54"
         width="4"
         height="2"
         fill="#8d1d1d"
         id="rect66" /><rect
         x="14"
         y="56"
         width="2"
         height="6"
         fill="#ffffff"
         id="rect67" /><rect
         x="20"
         y="56"
         width="8"
         height="2"
         fill="#ffffff"
         id="rect68" /><rect
         x="28"
         y="56"
         width="8"
         height="2"
         fill="#d2d2d2"
         id="rect69" /><rect
         x="36"
         y="56"
         width="8"
         height="2"
         fill="#ffffff"
         id="rect70" /><rect
         x="48"
         y="56"
         width="2"
         height="6"
         fill="#ffffff"
         id="rect71" /><rect
         x="12"
         y="58"
         width="2"
         height="4"
         fill="#ffffff"
         id="rect72" /><rect
         x="18"
         y="58"
         width="4"
         height="2"
         fill="#fb8f00"
         id="rect73" /><rect
         x="22"
         y="58"
         width="2"
         height="2"
         fill="#ac3232"
         id="rect74" /><rect
         x="24"
         y="58"
         width="2"
         height="2"
         fill="#ffffff"
         id="rect75" /><rect
         x="26"
         y="58"
         width="2"
         height="2"
         fill="#d2d2d2"
         id="rect76" /><rect
         x="36"
         y="58"
         width="2"
         height="2"
         fill="#d2d2d2"
         id="rect77" /><rect
         x="38"
         y="58"
         width="2"
         height="2"
         fill="#ffffff"
         id="rect78" /><rect
         x="40"
         y="58"
         width="2"
         height="2"
         fill="#ac3232"
         id="rect79" /><rect
         x="42"
         y="58"
         width="4"
         height="2"
         fill="#fb8f00"
         id="rect80" /><rect
         x="50"
         y="58"
         width="2"
         height="4"
         fill="#ffffff"
         id="rect81" /><rect
         x="10"
         y="60"
         width="2"
         height="2"
         fill="#d2d2d2"
         id="rect82" /><rect
         x="16"
         y="60"
         width="4"
         height="2"
         fill="#fb8f00"
         id="rect83" /><rect
         x="20"
         y="60"
         width="2"
         height="2"
         fill="#ac3232"
         id="rect84" /><rect
         x="22"
         y="60"
         width="2"
         height="2"
         fill="#ffffff"
         id="rect85" /><rect
         x="24"
         y="60"
         width="2"
         height="2"
         fill="#d2d2d2"
         id="rect86" /><rect
         x="38"
         y="60"
         width="2"
         height="2"
         fill="#d2d2d2"
         id="rect87" /><rect
         x="40"
         y="60"
         width="2"
         height="2"
         fill="#ffffff"
         id="rect88" /><rect
         x="42"
         y="60"
         width="2"
         height="2"
         fill="#ac3232"
         id="rect89" /><rect
         x="44"
         y="60"
         width="4"
         height="2"
         fill="#fb8f00"
         id="rect90" /><rect
         x="52"
         y="60"
         width="2"
         height="2"
         fill="#d2d2d2"
         id="rect91" /><rect
         x="12"
         y="62"
         width="12"
         height="2"
         fill="#d2d2d2"
         id="rect92" /><rect
         x="40"
         y="62"
         width="12"
         height="2"
         fill="#d2d2d2"
         id="rect93" /></g></g></svg>
